<mxfile host="app.diagrams.net" modified="2024-05-22T13:03:05.636Z" agent="Mozilla/5.0 (Macintosh; Intel Mac OS X 10_15_7) AppleWebKit/537.36 (KHTML, like Gecko) Chrome/118.0.0.0 Safari/537.36" etag="91raNKxJzstT0nJ_InhI" version="24.4.4" type="device">
  <diagram name="페이지-1" id="lHuzEREjm7QoMPwbzol3">
    <mxGraphModel dx="638" dy="658" grid="1" gridSize="10" guides="1" tooltips="1" connect="1" arrows="1" fold="1" page="1" pageScale="1" pageWidth="827" pageHeight="1169" math="0" shadow="0">
      <root>
        <mxCell id="0" />
        <mxCell id="1" parent="0" />
        <mxCell id="6OuiRHNz0drdAeVXKRiA-2" style="edgeStyle=orthogonalEdgeStyle;rounded=0;orthogonalLoop=1;jettySize=auto;html=1;exitX=0;exitY=0.5;exitDx=0;exitDy=0;jumpSize=6;endArrow=none;endFill=0;" edge="1" parent="1" source="ntomCm8eiDsTSne52-EQ-1" target="6OuiRHNz0drdAeVXKRiA-1">
          <mxGeometry relative="1" as="geometry" />
        </mxCell>
        <mxCell id="ntomCm8eiDsTSne52-EQ-1" value="ReadController" style="rounded=0;whiteSpace=wrap;html=1;" parent="1" vertex="1">
          <mxGeometry x="210" y="140" width="120" height="60" as="geometry" />
        </mxCell>
        <mxCell id="ntomCm8eiDsTSne52-EQ-2" value="Pop3Agent" style="rounded=0;whiteSpace=wrap;html=1;" parent="1" vertex="1">
          <mxGeometry x="480" y="140" width="120" height="60" as="geometry" />
        </mxCell>
        <mxCell id="ntomCm8eiDsTSne52-EQ-4" value="" style="endArrow=none;html=1;rounded=0;entryX=0;entryY=0.5;entryDx=0;entryDy=0;exitX=1;exitY=0.5;exitDx=0;exitDy=0;" parent="1" source="ntomCm8eiDsTSne52-EQ-1" target="ntomCm8eiDsTSne52-EQ-2" edge="1">
          <mxGeometry width="50" height="50" relative="1" as="geometry">
            <mxPoint x="490" y="370" as="sourcePoint" />
            <mxPoint x="540" y="320" as="targetPoint" />
          </mxGeometry>
        </mxCell>
        <mxCell id="ntomCm8eiDsTSne52-EQ-5" value="" style="endArrow=classic;html=1;rounded=0;" parent="1" edge="1">
          <mxGeometry width="50" height="50" relative="1" as="geometry">
            <mxPoint x="348" y="157" as="sourcePoint" />
            <mxPoint x="468" y="157" as="targetPoint" />
          </mxGeometry>
        </mxCell>
        <mxCell id="ntomCm8eiDsTSne52-EQ-6" value="1: search(keyword, category)" style="text;html=1;align=center;verticalAlign=middle;whiteSpace=wrap;rounded=0;" parent="1" vertex="1">
          <mxGeometry x="40" y="130" width="162" height="30" as="geometry" />
        </mxCell>
        <mxCell id="ntomCm8eiDsTSne52-EQ-7" value="" style="endArrow=classic;html=1;rounded=0;" parent="1" edge="1">
          <mxGeometry width="50" height="50" relative="1" as="geometry">
            <mxPoint x="469" y="180" as="sourcePoint" />
            <mxPoint x="349" y="180" as="targetPoint" />
          </mxGeometry>
        </mxCell>
        <mxCell id="ntomCm8eiDsTSne52-EQ-8" value="7: 검색 목록 반환" style="text;html=1;align=center;verticalAlign=middle;whiteSpace=wrap;rounded=0;" parent="1" vertex="1">
          <mxGeometry x="350" y="180" width="118" height="30" as="geometry" />
        </mxCell>
        <mxCell id="ntomCm8eiDsTSne52-EQ-9" value="DeletedEmailsService" style="rounded=0;whiteSpace=wrap;html=1;" parent="1" vertex="1">
          <mxGeometry x="800" y="140" width="120" height="60" as="geometry" />
        </mxCell>
        <mxCell id="ntomCm8eiDsTSne52-EQ-10" value="3: findByUsername(username)" style="text;html=1;align=center;verticalAlign=middle;whiteSpace=wrap;rounded=0;" parent="1" vertex="1">
          <mxGeometry x="610" y="130" width="190" height="30" as="geometry" />
        </mxCell>
        <mxCell id="ntomCm8eiDsTSne52-EQ-11" value="" style="endArrow=none;html=1;rounded=0;entryX=0;entryY=0.5;entryDx=0;entryDy=0;exitX=1;exitY=0.5;exitDx=0;exitDy=0;" parent="1" target="ntomCm8eiDsTSne52-EQ-9" edge="1">
          <mxGeometry width="50" height="50" relative="1" as="geometry">
            <mxPoint x="600" y="170" as="sourcePoint" />
            <mxPoint x="590" y="220" as="targetPoint" />
            <Array as="points">
              <mxPoint x="760" y="170" />
            </Array>
          </mxGeometry>
        </mxCell>
        <mxCell id="ntomCm8eiDsTSne52-EQ-12" value="" style="endArrow=classic;html=1;rounded=0;" parent="1" edge="1">
          <mxGeometry width="50" height="50" relative="1" as="geometry">
            <mxPoint x="625" y="160" as="sourcePoint" />
            <mxPoint x="755" y="160" as="targetPoint" />
          </mxGeometry>
        </mxCell>
        <mxCell id="ntomCm8eiDsTSne52-EQ-13" value="" style="endArrow=classic;html=1;rounded=0;" parent="1" edge="1">
          <mxGeometry width="50" height="50" relative="1" as="geometry">
            <mxPoint x="750" y="179.17" as="sourcePoint" />
            <mxPoint x="620" y="179.17" as="targetPoint" />
            <Array as="points">
              <mxPoint x="700" y="179.17" />
            </Array>
          </mxGeometry>
        </mxCell>
        <mxCell id="ntomCm8eiDsTSne52-EQ-14" value="DeletedEmailsRepository" style="rounded=0;whiteSpace=wrap;html=1;" parent="1" vertex="1">
          <mxGeometry x="790" y="280" width="140" height="60" as="geometry" />
        </mxCell>
        <mxCell id="ntomCm8eiDsTSne52-EQ-15" value="" style="endArrow=none;html=1;rounded=0;entryX=0.5;entryY=1;entryDx=0;entryDy=0;exitX=0.5;exitY=0;exitDx=0;exitDy=0;" parent="1" source="ntomCm8eiDsTSne52-EQ-14" target="ntomCm8eiDsTSne52-EQ-9" edge="1">
          <mxGeometry width="50" height="50" relative="1" as="geometry">
            <mxPoint x="700" y="220" as="sourcePoint" />
            <mxPoint x="750" y="170" as="targetPoint" />
          </mxGeometry>
        </mxCell>
        <mxCell id="ntomCm8eiDsTSne52-EQ-16" value="&lt;span style=&quot;color: rgb(0, 0, 0); font-family: Helvetica; font-size: 12px; font-style: normal; font-variant-ligatures: normal; font-variant-caps: normal; font-weight: 400; letter-spacing: normal; orphans: 2; text-align: center; text-indent: 0px; text-transform: none; widows: 2; word-spacing: 0px; -webkit-text-stroke-width: 0px; white-space: normal; background-color: rgb(251, 251, 251); text-decoration-thickness: initial; text-decoration-style: initial; text-decoration-color: initial; display: inline !important; float: none;&quot;&gt;4: findByUser&lt;/span&gt;&lt;div&gt;&lt;span style=&quot;color: rgb(0, 0, 0); font-family: Helvetica; font-size: 12px; font-style: normal; font-variant-ligatures: normal; font-variant-caps: normal; font-weight: 400; letter-spacing: normal; orphans: 2; text-align: center; text-indent: 0px; text-transform: none; widows: 2; word-spacing: 0px; -webkit-text-stroke-width: 0px; white-space: normal; background-color: rgb(251, 251, 251); text-decoration-thickness: initial; text-decoration-style: initial; text-decoration-color: initial; display: inline !important; float: none;&quot;&gt;Username(username)&lt;/span&gt;&lt;/div&gt;" style="text;whiteSpace=wrap;html=1;" parent="1" vertex="1">
          <mxGeometry x="870" y="209" width="180" height="40" as="geometry" />
        </mxCell>
        <mxCell id="ntomCm8eiDsTSne52-EQ-17" value="" style="endArrow=classic;html=1;rounded=0;exitX=0;exitY=0;exitDx=0;exitDy=0;" parent="1" source="ntomCm8eiDsTSne52-EQ-16" edge="1">
          <mxGeometry width="50" height="50" relative="1" as="geometry">
            <mxPoint x="640" y="209" as="sourcePoint" />
            <mxPoint x="870" y="269" as="targetPoint" />
          </mxGeometry>
        </mxCell>
        <mxCell id="ntomCm8eiDsTSne52-EQ-18" value="5: 삭제된 메일&amp;nbsp;&lt;div&gt;목록 반환&lt;/div&gt;" style="text;html=1;align=center;verticalAlign=middle;whiteSpace=wrap;rounded=0;" parent="1" vertex="1">
          <mxGeometry x="700" y="220" width="170" height="29" as="geometry" />
        </mxCell>
        <mxCell id="ntomCm8eiDsTSne52-EQ-19" value="" style="endArrow=classic;html=1;rounded=0;" parent="1" edge="1">
          <mxGeometry width="50" height="50" relative="1" as="geometry">
            <mxPoint x="850" y="270" as="sourcePoint" />
            <mxPoint x="850" y="210" as="targetPoint" />
            <Array as="points">
              <mxPoint x="850" y="240" />
            </Array>
          </mxGeometry>
        </mxCell>
        <mxCell id="ntomCm8eiDsTSne52-EQ-20" value="6: 삭제된 메일 목록 반환" style="text;html=1;align=center;verticalAlign=middle;whiteSpace=wrap;rounded=0;" parent="1" vertex="1">
          <mxGeometry x="600" y="180" width="170" height="29" as="geometry" />
        </mxCell>
        <mxCell id="6OuiRHNz0drdAeVXKRiA-1" value="Actor" style="shape=umlActor;verticalLabelPosition=bottom;verticalAlign=top;html=1;outlineConnect=0;" vertex="1" parent="1">
          <mxGeometry x="10" y="140" width="30" height="60" as="geometry" />
        </mxCell>
        <mxCell id="6OuiRHNz0drdAeVXKRiA-3" value="" style="endArrow=classic;html=1;rounded=0;" edge="1" parent="1">
          <mxGeometry width="50" height="50" relative="1" as="geometry">
            <mxPoint x="50" y="160" as="sourcePoint" />
            <mxPoint x="200" y="160" as="targetPoint" />
          </mxGeometry>
        </mxCell>
        <mxCell id="6OuiRHNz0drdAeVXKRiA-7" value="2: getSearchList(keyword, category)" style="text;html=1;align=center;verticalAlign=middle;whiteSpace=wrap;rounded=0;" vertex="1" parent="1">
          <mxGeometry x="331.5" y="120" width="155" height="30" as="geometry" />
        </mxCell>
        <mxCell id="6OuiRHNz0drdAeVXKRiA-8" value="" style="endArrow=classic;html=1;rounded=0;" edge="1" parent="1">
          <mxGeometry width="50" height="50" relative="1" as="geometry">
            <mxPoint x="190" y="180" as="sourcePoint" />
            <mxPoint x="50" y="180" as="targetPoint" />
          </mxGeometry>
        </mxCell>
        <mxCell id="6OuiRHNz0drdAeVXKRiA-9" value="8: 검색 목록 반환" style="text;html=1;align=center;verticalAlign=middle;whiteSpace=wrap;rounded=0;" vertex="1" parent="1">
          <mxGeometry x="66" y="180" width="110" height="30" as="geometry" />
        </mxCell>
      </root>
    </mxGraphModel>
  </diagram>
</mxfile>
